<svg width="180" height="60" viewBox="0 0 200 94" fill="none" xmlns="http://www.w3.org/2000/svg">
<path d="M0.316406 2.47266H6.50781V10.4414H25.4922V2.47266H31.7031V33H25.4922V15.7344H6.50781V33H0.316406V2.47266ZM38.5586 25.7344C38.5586 24.6276 38.7995 23.6185 39.2812 22.707C39.763 21.7956 40.4857 21.0143 41.4492 20.3633C42.4128 19.6992 43.6107 19.1914 45.043 18.8398C46.4883 18.4753 48.168 18.293 50.082 18.293C51.5013 18.293 52.9922 18.3971 54.5547 18.6055C56.1302 18.8138 57.7513 19.1328 59.418 19.5625C59.3529 18.8333 59.1315 18.1628 58.7539 17.5508C58.3763 16.9258 57.849 16.3919 57.1719 15.9492C56.5078 15.4935 55.7005 15.1419 54.75 14.8945C53.8125 14.6471 52.7448 14.5234 51.5469 14.5234C50.8958 14.5234 50.1797 14.5625 49.3984 14.6406C48.6172 14.7188 47.8099 14.8359 46.9766 14.9922C46.1432 15.1484 45.3164 15.3438 44.4961 15.5781C43.6888 15.8125 42.9336 16.0924 42.2305 16.418L40.4727 11.6719C41.3451 11.3594 42.276 11.0729 43.2656 10.8125C44.2682 10.5521 45.2904 10.3307 46.332 10.1484C47.3737 9.95312 48.4154 9.80339 49.457 9.69922C50.4987 9.59505 51.5078 9.54297 52.4844 9.54297C56.7943 9.54297 59.9974 10.6432 62.0938 12.8438C64.1901 15.0443 65.2383 18.4167 65.2383 22.9609V33H59.457V30.832C58.8581 31.1836 58.2005 31.5156 57.4844 31.8281C56.7812 32.1406 56.013 32.4141 55.1797 32.6484C54.3464 32.8828 53.4479 33.0651 52.4844 33.1953C51.5339 33.3385 50.5247 33.4102 49.457 33.4102C47.6602 33.4102 46.0781 33.2148 44.7109 32.8242C43.3568 32.4336 42.224 31.8932 41.3125 31.2031C40.401 30.513 39.7109 29.7057 39.2422 28.7812C38.7865 27.8438 38.5586 26.8281 38.5586 25.7344ZM44.6523 25.5391C44.6523 25.9167 44.75 26.2812 44.9453 26.6328C45.1406 26.9714 45.4531 27.2773 45.8828 27.5508C46.3125 27.8112 46.8594 28.026 47.5234 28.1953C48.2005 28.3516 49.0143 28.4297 49.9648 28.4297C50.9805 28.4297 51.9635 28.3385 52.9141 28.1562C53.8646 27.974 54.75 27.7331 55.5703 27.4336C56.3906 27.1341 57.1328 26.7891 57.7969 26.3984C58.4609 26.0078 59.0143 25.6042 59.457 25.1875V24.1719C58.5716 23.9245 57.6927 23.7161 56.8203 23.5469C55.9609 23.3776 55.1341 23.2474 54.3398 23.1562C53.5586 23.0521 52.8164 22.9805 52.1133 22.9414C51.4232 22.9023 50.8177 22.8828 50.2969 22.8828C49.2161 22.8828 48.3177 22.9544 47.6016 23.0977C46.8854 23.2409 46.306 23.4362 45.8633 23.6836C45.4206 23.918 45.1081 24.1979 44.9258 24.5234C44.7435 24.849 44.6523 25.1875 44.6523 25.5391ZM75.9414 6.80859C75.3685 6.80859 74.8477 6.73047 74.3789 6.57422C73.9232 6.40495 73.5326 6.18359 73.207 5.91016C72.8815 5.6237 72.6276 5.29818 72.4453 4.93359C72.276 4.55599 72.1914 4.15885 72.1914 3.74219C72.1914 3.3125 72.276 2.91536 72.4453 2.55078C72.6276 2.17318 72.8815 1.84766 73.207 1.57422C73.5326 1.30078 73.9232 1.08594 74.3789 0.929688C74.8477 0.760417 75.3685 0.675781 75.9414 0.675781C76.5273 0.675781 77.0482 0.760417 77.5039 0.929688C77.9727 1.08594 78.3698 1.30078 78.6953 1.57422C79.0208 1.84766 79.2682 2.17318 79.4375 2.55078C79.6198 2.91536 79.7109 3.3125 79.7109 3.74219C79.7109 4.15885 79.6198 4.55599 79.4375 4.93359C79.2682 5.29818 79.0208 5.6237 78.6953 5.91016C78.3698 6.18359 77.9727 6.40495 77.5039 6.57422C77.0482 6.73047 76.5273 6.80859 75.9414 6.80859ZM73.0508 9.95312H78.832V33H73.0508V9.95312Z" fill="#F3491D"/>
<path d="M0.296875 52.4727H6.48828L25.5117 62.4336V52.4727H31.7031V83H25.5117V68.9961L6.48828 59.0938V83H0.296875V52.4727ZM43.2266 86.9062C43.9557 87.1667 44.6979 87.3815 45.4531 87.5508C46.2083 87.7331 46.9375 87.8763 47.6406 87.9805C48.3568 88.0977 49.0404 88.1758 49.6914 88.2148C50.3424 88.2669 50.9219 88.293 51.4297 88.293C52.9661 88.293 54.3008 88.1042 55.4336 87.7266C56.5794 87.362 57.5299 86.8672 58.2852 86.2422C59.0534 85.6172 59.6263 84.888 60.0039 84.0547C60.3815 83.2344 60.5703 82.362 60.5703 81.4375V80.4414C60.0755 80.7799 59.4961 81.1055 58.832 81.418C58.168 81.7305 57.4388 82.0039 56.6445 82.2383C55.8503 82.4727 55.0039 82.6615 54.1055 82.8047C53.2201 82.9479 52.3021 83.0195 51.3516 83.0195C49.4635 83.0195 47.7188 82.7396 46.1172 82.1797C44.5156 81.6068 43.1289 80.8125 41.957 79.7969C40.7852 78.7682 39.8672 77.5378 39.2031 76.1055C38.5521 74.6732 38.2266 73.0846 38.2266 71.3398C38.2266 69.556 38.5716 67.9414 39.2617 66.4961C39.9518 65.0378 40.9023 63.7943 42.1133 62.7656C43.3372 61.737 44.7826 60.9427 46.4492 60.3828C48.1159 59.8229 49.9258 59.543 51.8789 59.543C52.7122 59.543 53.5391 59.5951 54.3594 59.6992C55.1797 59.8034 55.9609 59.9466 56.7031 60.1289C57.4583 60.3112 58.1615 60.5326 58.8125 60.793C59.4766 61.0404 60.0625 61.3138 60.5703 61.6133V59.9531H66.3516V80.3633C66.3516 82.4596 66.0326 84.3151 65.3945 85.9297C64.7565 87.5443 63.819 88.8984 62.582 89.9922C61.3581 91.099 59.8346 91.9323 58.0117 92.4922C56.1888 93.0651 54.099 93.3516 51.7422 93.3516C50.8958 93.3516 50.0169 93.3125 49.1055 93.2344C48.194 93.1693 47.276 93.0651 46.3516 92.9219C45.4401 92.7917 44.5352 92.6289 43.6367 92.4336C42.7513 92.2513 41.8984 92.0365 41.0781 91.7891L43.2266 86.9062ZM44.3008 71.2812C44.3008 72.2057 44.4831 73.0781 44.8477 73.8984C45.2253 74.7057 45.7591 75.4154 46.4492 76.0273C47.1393 76.6263 47.9727 77.1016 48.9492 77.4531C49.9258 77.7917 51.026 77.9609 52.25 77.9609C53.0443 77.9609 53.832 77.8893 54.6133 77.7461C55.4076 77.5898 56.1628 77.375 56.8789 77.1016C57.6081 76.8281 58.2852 76.4961 58.9102 76.1055C59.5482 75.7148 60.1016 75.2786 60.5703 74.7969V67.1992C59.9844 66.7305 59.3659 66.3333 58.7148 66.0078C58.0638 65.6823 57.3997 65.4154 56.7227 65.207C56.0456 64.9987 55.362 64.849 54.6719 64.7578C53.9818 64.6536 53.3112 64.6016 52.6602 64.6016C51.332 64.6016 50.1471 64.7773 49.1055 65.1289C48.0768 65.4805 47.2044 65.9622 46.4883 66.5742C45.7852 67.1732 45.2448 67.8763 44.8672 68.6836C44.4896 69.4909 44.3008 70.3568 44.3008 71.2812ZM72.9336 59.9336H78.6953V71.1836C78.6953 72.2513 78.8125 73.2279 79.0469 74.1133C79.2812 74.9857 79.6784 75.7344 80.2383 76.3594C80.8112 76.9844 81.5664 77.4727 82.5039 77.8242C83.4544 78.1628 84.6328 78.332 86.0391 78.332C86.7031 78.332 87.3737 78.2604 88.0508 78.1172C88.7409 77.974 89.3984 77.7786 90.0234 77.5312C90.6484 77.2708 91.2279 76.9648 91.7617 76.6133C92.3086 76.2617 92.7773 75.8776 93.168 75.4609V59.9336H98.9492V83H93.168V81.0273C91.7487 81.8737 90.3229 82.4792 88.8906 82.8438C87.4583 83.2083 86.0977 83.3906 84.8086 83.3906C82.6992 83.3906 80.8893 83.1367 79.3789 82.6289C77.8815 82.1211 76.651 81.3854 75.6875 80.4219C74.737 79.4453 74.0404 78.2539 73.5977 76.8477C73.1549 75.4284 72.9336 73.8138 72.9336 72.0039V59.9336ZM109.047 85.8906C109.646 86.2812 110.297 86.6263 111 86.9258C111.703 87.2253 112.432 87.4727 113.188 87.668C113.956 87.8633 114.737 88.0065 115.531 88.0977C116.326 88.2018 117.113 88.2539 117.895 88.2539C120.551 88.2539 122.595 87.681 124.027 86.5352C125.473 85.4023 126.195 83.6966 126.195 81.418V80.6367C125.688 80.9883 125.115 81.3138 124.477 81.6133C123.852 81.8997 123.174 82.1471 122.445 82.3555C121.729 82.5638 120.967 82.7266 120.16 82.8438C119.366 82.9479 118.559 83 117.738 83C115.98 83 114.405 82.7461 113.012 82.2383C111.632 81.7174 110.46 80.9622 109.496 79.9727C108.546 78.9701 107.816 77.7396 107.309 76.2812C106.801 74.8229 106.547 73.1562 106.547 71.2812V59.9531H112.309V69.6797C112.309 72.4661 112.836 74.5234 113.891 75.8516C114.958 77.1667 116.638 77.8242 118.93 77.8242C120.544 77.8242 121.97 77.5443 123.207 76.9844C124.457 76.4115 125.453 75.6823 126.195 74.7969V59.9531H131.977V80.3633C131.977 82.5638 131.664 84.4714 131.039 86.0859C130.414 87.7135 129.503 89.0612 128.305 90.1289C127.12 91.1966 125.661 91.9909 123.93 92.5117C122.198 93.0456 120.232 93.3125 118.031 93.3125C115.883 93.3125 113.878 93.0846 112.016 92.6289C110.154 92.1732 108.448 91.5547 106.898 90.7734L109.047 85.8906ZM138.363 71.3984C138.363 69.8359 138.682 68.3451 139.32 66.9258C139.958 65.4935 140.876 64.2305 142.074 63.1367C143.272 62.043 144.737 61.1706 146.469 60.5195C148.214 59.8685 150.193 59.543 152.406 59.543C154.607 59.543 156.586 59.875 158.344 60.5391C160.115 61.1901 161.612 62.0885 162.836 63.2344C164.073 64.3802 165.017 65.7279 165.668 67.2773C166.332 68.8268 166.664 70.487 166.664 72.2578C166.664 72.4792 166.658 72.7201 166.645 72.9805C166.645 73.2279 166.632 73.4557 166.605 73.6641H144.809C145.056 74.3542 145.453 74.9857 146 75.5586C146.56 76.1315 147.257 76.6263 148.09 77.043C148.923 77.4596 149.887 77.7852 150.98 78.0195C152.074 78.2409 153.285 78.3516 154.613 78.3516C155.941 78.3516 157.263 78.2148 158.578 77.9414C159.893 77.6549 161.15 77.2969 162.348 76.8672L164.301 81.2812C163.546 81.6328 162.777 81.9453 161.996 82.2188C161.228 82.4792 160.421 82.7005 159.574 82.8828C158.741 83.0521 157.862 83.1823 156.938 83.2734C156.026 83.3646 155.062 83.4102 154.047 83.4102C151.456 83.4102 149.184 83.0977 147.23 82.4727C145.277 81.8477 143.643 80.9948 142.328 79.9141C141.013 78.8333 140.023 77.5638 139.359 76.1055C138.695 74.6471 138.363 73.0781 138.363 71.3984ZM160.531 69.1523C160.323 68.5143 159.997 67.9219 159.555 67.375C159.125 66.8151 158.585 66.3333 157.934 65.9297C157.283 65.513 156.527 65.1875 155.668 64.9531C154.809 64.7188 153.865 64.6016 152.836 64.6016C151.742 64.6016 150.746 64.7253 149.848 64.9727C148.949 65.2201 148.161 65.5521 147.484 65.9688C146.807 66.3854 146.241 66.8672 145.785 67.4141C145.342 67.9609 145.017 68.5404 144.809 69.1523H160.531ZM172.895 59.9531H178.676V61.9062C180.212 61.0339 181.677 60.4219 183.07 60.0703C184.477 59.7188 185.85 59.543 187.191 59.543C188.949 59.543 190.577 59.8034 192.074 60.3242C193.572 60.832 194.867 61.5938 195.961 62.6094C197.055 63.625 197.908 64.8945 198.52 66.418C199.145 67.9284 199.457 69.6797 199.457 71.6719V83H193.695V72.6094C193.695 71.3464 193.513 70.2201 193.148 69.2305C192.797 68.2279 192.283 67.388 191.605 66.7109C190.941 66.0208 190.128 65.5 189.164 65.1484C188.214 64.7839 187.146 64.6016 185.961 64.6016C185.336 64.6016 184.691 64.6667 184.027 64.7969C183.376 64.9271 182.732 65.1159 182.094 65.3633C181.469 65.5977 180.863 65.8971 180.277 66.2617C179.691 66.6133 179.158 67.0169 178.676 67.4727V83H172.895V59.9531Z" fill="white"/>
</svg>
