<svg width="100" height="75" viewBox="0 0 160 75" fill="none" xmlns="http://www.w3.org/2000/svg">
<path d="M0.453125 1.57812H5.40625V7.95312H20.5938V1.57812H25.5625V26H20.5938V12.1875H5.40625V26H0.453125V1.57812ZM31.0469 20.1875C31.0469 19.3021 31.2396 18.4948 31.625 17.7656C32.0104 17.0365 32.5885 16.4115 33.3594 15.8906C34.1302 15.3594 35.0885 14.9531 36.2344 14.6719C37.3906 14.3802 38.7344 14.2344 40.2656 14.2344C41.401 14.2344 42.5938 14.3177 43.8438 14.4844C45.1042 14.651 46.401 14.9062 47.7344 15.25C47.6823 14.6667 47.5052 14.1302 47.2031 13.6406C46.901 13.1406 46.4792 12.7135 45.9375 12.3594C45.4062 11.9948 44.7604 11.7135 44 11.5156C43.25 11.3177 42.3958 11.2188 41.4375 11.2188C40.9167 11.2188 40.3438 11.25 39.7188 11.3125C39.0938 11.375 38.4479 11.4688 37.7812 11.5938C37.1146 11.7188 36.4531 11.875 35.7969 12.0625C35.151 12.25 34.5469 12.474 33.9844 12.7344L32.5781 8.9375C33.276 8.6875 34.0208 8.45833 34.8125 8.25C35.6146 8.04167 36.4323 7.86458 37.2656 7.71875C38.099 7.5625 38.9323 7.44271 39.7656 7.35938C40.599 7.27604 41.4062 7.23438 42.1875 7.23438C45.6354 7.23438 48.1979 8.11458 49.875 9.875C51.5521 11.6354 52.3906 14.3333 52.3906 17.9688V26H47.7656V24.2656C47.2865 24.5469 46.7604 24.8125 46.1875 25.0625C45.625 25.3125 45.0104 25.5312 44.3438 25.7188C43.6771 25.9062 42.9583 26.0521 42.1875 26.1562C41.4271 26.2708 40.6198 26.3281 39.7656 26.3281C38.3281 26.3281 37.0625 26.1719 35.9688 25.8594C34.8854 25.5469 33.9792 25.1146 33.25 24.5625C32.5208 24.0104 31.9688 23.3646 31.5938 22.625C31.2292 21.875 31.0469 21.0625 31.0469 20.1875ZM35.9219 20.0312C35.9219 20.3333 36 20.625 36.1562 20.9062C36.3125 21.1771 36.5625 21.4219 36.9062 21.6406C37.25 21.849 37.6875 22.0208 38.2188 22.1562C38.7604 22.2812 39.4115 22.3438 40.1719 22.3438C40.9844 22.3438 41.7708 22.2708 42.5312 22.125C43.2917 21.9792 44 21.7865 44.6562 21.5469C45.3125 21.3073 45.9062 21.0312 46.4375 20.7188C46.9688 20.4062 47.4115 20.0833 47.7656 19.75V18.9375C47.0573 18.7396 46.3542 18.5729 45.6562 18.4375C44.9688 18.3021 44.3073 18.1979 43.6719 18.125C43.0469 18.0417 42.4531 17.9844 41.8906 17.9531C41.3385 17.9219 40.8542 17.9062 40.4375 17.9062C39.5729 17.9062 38.8542 17.9635 38.2812 18.0781C37.7083 18.1927 37.2448 18.349 36.8906 18.5469C36.5365 18.7344 36.2865 18.9583 36.1406 19.2188C35.9948 19.4792 35.9219 19.75 35.9219 20.0312ZM60.9531 5.04688C60.4948 5.04688 60.0781 4.98438 59.7031 4.85938C59.3385 4.72396 59.026 4.54688 58.7656 4.32812C58.5052 4.09896 58.3021 3.83854 58.1562 3.54688C58.0208 3.24479 57.9531 2.92708 57.9531 2.59375C57.9531 2.25 58.0208 1.93229 58.1562 1.64062C58.3021 1.33854 58.5052 1.07812 58.7656 0.859375C59.026 0.640625 59.3385 0.46875 59.7031 0.34375C60.0781 0.208333 60.4948 0.140625 60.9531 0.140625C61.4219 0.140625 61.8385 0.208333 62.2031 0.34375C62.5781 0.46875 62.8958 0.640625 63.1562 0.859375C63.4167 1.07812 63.6146 1.33854 63.75 1.64062C63.8958 1.93229 63.9688 2.25 63.9688 2.59375C63.9688 2.92708 63.8958 3.24479 63.75 3.54688C63.6146 3.83854 63.4167 4.09896 63.1562 4.32812C62.8958 4.54688 62.5781 4.72396 62.2031 4.85938C61.8385 4.98438 61.4219 5.04688 60.9531 5.04688ZM58.6406 7.5625H63.2656V26H58.6406V7.5625ZM0.4375 41.5781H5.39062L20.6094 49.5469V41.5781H25.5625V66H20.6094V54.7969L5.39062 46.875V66H0.4375V41.5781ZM34.7812 69.125C35.3646 69.3333 35.9583 69.5052 36.5625 69.6406C37.1667 69.7865 37.75 69.901 38.3125 69.9844C38.8854 70.0781 39.4323 70.1406 39.9531 70.1719C40.474 70.2135 40.9375 70.2344 41.3438 70.2344C42.5729 70.2344 43.6406 70.0833 44.5469 69.7812C45.4635 69.4896 46.224 69.0938 46.8281 68.5938C47.4427 68.0938 47.901 67.5104 48.2031 66.8438C48.5052 66.1875 48.6562 65.4896 48.6562 64.75V63.9531C48.2604 64.224 47.7969 64.4844 47.2656 64.7344C46.7344 64.9844 46.151 65.2031 45.5156 65.3906C44.8802 65.5781 44.2031 65.7292 43.4844 65.8438C42.776 65.9583 42.0417 66.0156 41.2812 66.0156C39.7708 66.0156 38.375 65.7917 37.0938 65.3438C35.8125 64.8854 34.7031 64.25 33.7656 63.4375C32.8281 62.6146 32.0938 61.6302 31.5625 60.4844C31.0417 59.3385 30.7812 58.0677 30.7812 56.6719C30.7812 55.2448 31.0573 53.9531 31.6094 52.7969C32.1615 51.6302 32.9219 50.6354 33.8906 49.8125C34.8698 48.9896 36.026 48.3542 37.3594 47.9062C38.6927 47.4583 40.1406 47.2344 41.7031 47.2344C42.3698 47.2344 43.0312 47.276 43.6875 47.3594C44.3438 47.4427 44.9688 47.5573 45.5625 47.7031C46.1667 47.849 46.7292 48.026 47.25 48.2344C47.7812 48.4323 48.25 48.651 48.6562 48.8906V47.5625H53.2812V63.8906C53.2812 65.5677 53.026 67.0521 52.5156 68.3438C52.0052 69.6354 51.2552 70.7188 50.2656 71.5938C49.2865 72.4792 48.0677 73.1458 46.6094 73.5938C45.151 74.0521 43.4792 74.2812 41.5938 74.2812C40.9167 74.2812 40.2135 74.25 39.4844 74.1875C38.7552 74.1354 38.0208 74.0521 37.2812 73.9375C36.5521 73.8333 35.8281 73.7031 35.1094 73.5469C34.401 73.401 33.7188 73.2292 33.0625 73.0312L34.7812 69.125ZM35.6406 56.625C35.6406 57.3646 35.7865 58.0625 36.0781 58.7188C36.3802 59.3646 36.8073 59.9323 37.3594 60.4219C37.9115 60.901 38.5781 61.2812 39.3594 61.5625C40.1406 61.8333 41.0208 61.9688 42 61.9688C42.6354 61.9688 43.2656 61.9115 43.8906 61.7969C44.526 61.6719 45.1302 61.5 45.7031 61.2812C46.2865 61.0625 46.8281 60.7969 47.3281 60.4844C47.8385 60.1719 48.2812 59.8229 48.6562 59.4375V53.3594C48.1875 52.9844 47.6927 52.6667 47.1719 52.4062C46.651 52.1458 46.1198 51.9323 45.5781 51.7656C45.0365 51.599 44.4896 51.4792 43.9375 51.4062C43.3854 51.3229 42.849 51.2812 42.3281 51.2812C41.2656 51.2812 40.3177 51.4219 39.4844 51.7031C38.6615 51.9844 37.9635 52.3698 37.3906 52.8594C36.8281 53.3385 36.3958 53.901 36.0938 54.5469C35.7917 55.1927 35.6406 55.8854 35.6406 56.625ZM58.5469 47.5469H63.1562V56.5469C63.1562 57.401 63.25 58.1823 63.4375 58.8906C63.625 59.5885 63.9427 60.1875 64.3906 60.6875C64.849 61.1875 65.4531 61.5781 66.2031 61.8594C66.9635 62.1302 67.9062 62.2656 69.0312 62.2656C69.5625 62.2656 70.099 62.2083 70.6406 62.0938C71.1927 61.9792 71.7188 61.8229 72.2188 61.625C72.7188 61.4167 73.1823 61.1719 73.6094 60.8906C74.0469 60.6094 74.4219 60.3021 74.7344 59.9688V47.5469H79.3594V66H74.7344V64.4219C73.599 65.099 72.4583 65.5833 71.3125 65.875C70.1667 66.1667 69.0781 66.3125 68.0469 66.3125C66.3594 66.3125 64.9115 66.1094 63.7031 65.7031C62.5052 65.2969 61.5208 64.7083 60.75 63.9375C59.9896 63.1562 59.4323 62.2031 59.0781 61.0781C58.724 59.9427 58.5469 58.651 58.5469 57.2031V47.5469ZM87.4375 68.3125C87.9167 68.625 88.4375 68.901 89 69.1406C89.5625 69.3802 90.1458 69.5781 90.75 69.7344C91.3646 69.8906 91.9896 70.0052 92.625 70.0781C93.2604 70.1615 93.8906 70.2031 94.5156 70.2031C96.6406 70.2031 98.276 69.7448 99.4219 68.8281C100.578 67.9219 101.156 66.5573 101.156 64.7344V64.1094C100.75 64.3906 100.292 64.651 99.7812 64.8906C99.2812 65.1198 98.7396 65.3177 98.1562 65.4844C97.5833 65.651 96.974 65.7812 96.3281 65.875C95.6927 65.9583 95.0469 66 94.3906 66C92.9844 66 91.724 65.7969 90.6094 65.3906C89.5052 64.974 88.5677 64.3698 87.7969 63.5781C87.0365 62.776 86.4531 61.7917 86.0469 60.625C85.6406 59.4583 85.4375 58.125 85.4375 56.625V47.5625H90.0469V55.3438C90.0469 57.5729 90.4688 59.2188 91.3125 60.2812C92.1667 61.3333 93.5104 61.8594 95.3438 61.8594C96.6354 61.8594 97.776 61.6354 98.7656 61.1875C99.7656 60.7292 100.562 60.1458 101.156 59.4375V47.5625H105.781V63.8906C105.781 65.651 105.531 67.1771 105.031 68.4688C104.531 69.7708 103.802 70.849 102.844 71.7031C101.896 72.5573 100.729 73.1927 99.3438 73.6094C97.9583 74.0365 96.3854 74.25 94.625 74.25C92.9062 74.25 91.3021 74.0677 89.8125 73.7031C88.3229 73.3385 86.9583 72.8438 85.7188 72.2188L87.4375 68.3125ZM110.891 56.7188C110.891 55.4688 111.146 54.276 111.656 53.1406C112.167 51.9948 112.901 50.9844 113.859 50.1094C114.818 49.2344 115.99 48.5365 117.375 48.0156C118.771 47.4948 120.354 47.2344 122.125 47.2344C123.885 47.2344 125.469 47.5 126.875 48.0312C128.292 48.5521 129.49 49.2708 130.469 50.1875C131.458 51.1042 132.214 52.1823 132.734 53.4219C133.266 54.6615 133.531 55.9896 133.531 57.4062C133.531 57.5833 133.526 57.776 133.516 57.9844C133.516 58.1823 133.505 58.3646 133.484 58.5312H116.047C116.245 59.0833 116.562 59.5885 117 60.0469C117.448 60.5052 118.005 60.901 118.672 61.2344C119.339 61.5677 120.109 61.8281 120.984 62.0156C121.859 62.1927 122.828 62.2812 123.891 62.2812C124.953 62.2812 126.01 62.1719 127.062 61.9531C128.115 61.724 129.12 61.4375 130.078 61.0938L131.641 64.625C131.036 64.9062 130.422 65.1562 129.797 65.375C129.182 65.5833 128.536 65.7604 127.859 65.9062C127.193 66.0417 126.49 66.1458 125.75 66.2188C125.021 66.2917 124.25 66.3281 123.438 66.3281C121.365 66.3281 119.547 66.0781 117.984 65.5781C116.422 65.0781 115.115 64.3958 114.062 63.5312C113.01 62.6667 112.219 61.651 111.688 60.4844C111.156 59.3177 110.891 58.0625 110.891 56.7188ZM128.625 54.9219C128.458 54.4115 128.198 53.9375 127.844 53.5C127.5 53.0521 127.068 52.6667 126.547 52.3438C126.026 52.0104 125.422 51.75 124.734 51.5625C124.047 51.375 123.292 51.2812 122.469 51.2812C121.594 51.2812 120.797 51.3802 120.078 51.5781C119.359 51.776 118.729 52.0417 118.188 52.375C117.646 52.7083 117.193 53.0938 116.828 53.5312C116.474 53.9688 116.214 54.4323 116.047 54.9219H128.625ZM138.516 47.5625H143.141V49.125C144.37 48.4271 145.542 47.9375 146.656 47.6562C147.781 47.375 148.88 47.2344 149.953 47.2344C151.359 47.2344 152.661 47.4427 153.859 47.8594C155.057 48.2656 156.094 48.875 156.969 49.6875C157.844 50.5 158.526 51.5156 159.016 52.7344C159.516 53.9427 159.766 55.3438 159.766 56.9375V66H155.156V57.6875C155.156 56.6771 155.01 55.776 154.719 54.9844C154.438 54.1823 154.026 53.5104 153.484 52.9688C152.953 52.4167 152.302 52 151.531 51.7188C150.771 51.4271 149.917 51.2812 148.969 51.2812C148.469 51.2812 147.953 51.3333 147.422 51.4375C146.901 51.5417 146.385 51.6927 145.875 51.8906C145.375 52.0781 144.891 52.3177 144.422 52.6094C143.953 52.8906 143.526 53.2135 143.141 53.5781V66H138.516V47.5625Z" fill="url(#paint0_diamond_116_14)"/>
<defs>
<radialGradient id="paint0_diamond_116_14" cx="0" cy="0" r="1" gradientUnits="userSpaceOnUse" gradientTransform="translate(70.5 47.5) rotate(-60.1729) scale(43.2261 122.737)">
<stop stop-color="#F69752"/>
<stop offset="0.125" stop-color="#F69752"/>
<stop offset="0.25" stop-color="#F69752"/>
<stop offset="0.375" stop-color="#F57C3F"/>
<stop offset="0.5" stop-color="#F45A29"/>
<stop offset="0.625" stop-color="#F3491D"/>
<stop offset="0.75" stop-color="#C62C73"/>
<stop offset="0.875" stop-color="#AE1DA1"/>
<stop offset="1" stop-color="#D35B79"/>
</radialGradient>
</defs>
</svg>
